<mxfile host="app.diagrams.net" modified="2023-08-11T19:50:02.384Z" agent="Mozilla/5.0 (X11; Linux x86_64; rv:109.0) Gecko/20100101 Firefox/111.0" etag="CT4lR5Yw3qK9RPCUfZ9l" version="21.6.8" type="device">
  <diagram name="Page-1" id="7349JmIujoVzR3Fc2rxY">
    <mxGraphModel dx="927" dy="435" grid="1" gridSize="10" guides="1" tooltips="1" connect="1" arrows="1" fold="1" page="1" pageScale="1" pageWidth="1200" pageHeight="1600" math="1" shadow="0">
      <root>
        <mxCell id="0" />
        <mxCell id="1" parent="0" />
        <mxCell id="cnz3hMsyKCfIZB5nhlxs-11" style="edgeStyle=orthogonalEdgeStyle;rounded=0;orthogonalLoop=1;jettySize=auto;html=1;" edge="1" parent="1" source="cnz3hMsyKCfIZB5nhlxs-1" target="cnz3hMsyKCfIZB5nhlxs-8">
          <mxGeometry relative="1" as="geometry" />
        </mxCell>
        <mxCell id="cnz3hMsyKCfIZB5nhlxs-12" style="edgeStyle=orthogonalEdgeStyle;rounded=0;orthogonalLoop=1;jettySize=auto;html=1;entryX=0;entryY=0.5;entryDx=0;entryDy=0;exitX=1;exitY=1;exitDx=0;exitDy=0;" edge="1" parent="1" source="cnz3hMsyKCfIZB5nhlxs-1" target="cnz3hMsyKCfIZB5nhlxs-9">
          <mxGeometry relative="1" as="geometry" />
        </mxCell>
        <mxCell id="cnz3hMsyKCfIZB5nhlxs-14" style="edgeStyle=orthogonalEdgeStyle;rounded=0;orthogonalLoop=1;jettySize=auto;html=1;exitX=1;exitY=0;exitDx=0;exitDy=0;entryX=0;entryY=0.5;entryDx=0;entryDy=0;" edge="1" parent="1" source="cnz3hMsyKCfIZB5nhlxs-1" target="cnz3hMsyKCfIZB5nhlxs-7">
          <mxGeometry relative="1" as="geometry" />
        </mxCell>
        <mxCell id="cnz3hMsyKCfIZB5nhlxs-1" value="\(\rho\) simulation" style="rounded=1;whiteSpace=wrap;html=1;fillColor=#76608a;fontColor=#ffffff;strokeColor=#432D57;" vertex="1" parent="1">
          <mxGeometry x="570" y="200" width="120" height="60" as="geometry" />
        </mxCell>
        <mxCell id="cnz3hMsyKCfIZB5nhlxs-3" value="&lt;div&gt;linear&lt;/div&gt;&lt;div&gt;approximation&lt;br&gt;&lt;/div&gt;" style="ellipse;whiteSpace=wrap;html=1;fillColor=#b1ddf0;strokeColor=#10739e;" vertex="1" parent="1">
          <mxGeometry x="570" y="60" width="120" height="80" as="geometry" />
        </mxCell>
        <mxCell id="cnz3hMsyKCfIZB5nhlxs-4" value="&lt;div&gt;physical&lt;/div&gt;&lt;div&gt;qubits&lt;br&gt;&lt;/div&gt;" style="ellipse;whiteSpace=wrap;html=1;fillColor=#b1ddf0;strokeColor=#10739e;" vertex="1" parent="1">
          <mxGeometry x="570" y="320" width="120" height="80" as="geometry" />
        </mxCell>
        <mxCell id="cnz3hMsyKCfIZB5nhlxs-5" value="" style="shape=flexArrow;endArrow=classic;startArrow=classic;html=1;rounded=0;" edge="1" parent="1" source="cnz3hMsyKCfIZB5nhlxs-4" target="cnz3hMsyKCfIZB5nhlxs-1">
          <mxGeometry width="100" height="100" relative="1" as="geometry">
            <mxPoint x="360" y="370" as="sourcePoint" />
            <mxPoint x="460" y="270" as="targetPoint" />
          </mxGeometry>
        </mxCell>
        <mxCell id="cnz3hMsyKCfIZB5nhlxs-6" value="" style="shape=flexArrow;endArrow=classic;startArrow=classic;html=1;rounded=0;" edge="1" parent="1" source="cnz3hMsyKCfIZB5nhlxs-1" target="cnz3hMsyKCfIZB5nhlxs-3">
          <mxGeometry width="100" height="100" relative="1" as="geometry">
            <mxPoint x="410" y="320" as="sourcePoint" />
            <mxPoint x="510" y="220" as="targetPoint" />
          </mxGeometry>
        </mxCell>
        <mxCell id="cnz3hMsyKCfIZB5nhlxs-7" value="QEC code" style="ellipse;whiteSpace=wrap;html=1;aspect=fixed;fillColor=#b0e3e6;strokeColor=#0e8088;" vertex="1" parent="1">
          <mxGeometry x="790" y="90" width="80" height="80" as="geometry" />
        </mxCell>
        <mxCell id="cnz3hMsyKCfIZB5nhlxs-8" value="Layout" style="ellipse;whiteSpace=wrap;html=1;aspect=fixed;fillColor=#b0e3e6;strokeColor=#0e8088;" vertex="1" parent="1">
          <mxGeometry x="790" y="190" width="80" height="80" as="geometry" />
        </mxCell>
        <mxCell id="cnz3hMsyKCfIZB5nhlxs-9" value="Technology" style="ellipse;whiteSpace=wrap;html=1;aspect=fixed;fillColor=#b0e3e6;strokeColor=#0e8088;" vertex="1" parent="1">
          <mxGeometry x="790" y="290" width="80" height="80" as="geometry" />
        </mxCell>
        <mxCell id="cnz3hMsyKCfIZB5nhlxs-18" value="" style="edgeStyle=orthogonalEdgeStyle;rounded=0;orthogonalLoop=1;jettySize=auto;html=1;exitX=1;exitY=0.5;exitDx=0;exitDy=0;" edge="1" parent="1" source="cnz3hMsyKCfIZB5nhlxs-23" target="cnz3hMsyKCfIZB5nhlxs-17">
          <mxGeometry relative="1" as="geometry">
            <mxPoint x="350" y="230" as="sourcePoint" />
          </mxGeometry>
        </mxCell>
        <mxCell id="cnz3hMsyKCfIZB5nhlxs-17" value="&lt;div&gt;info&lt;/div&gt;loss" style="shape=or;whiteSpace=wrap;html=1;fillColor=#ffcccc;strokeColor=#36393d;" vertex="1" parent="1">
          <mxGeometry x="380" y="195" width="50" height="70" as="geometry" />
        </mxCell>
        <mxCell id="cnz3hMsyKCfIZB5nhlxs-25" style="edgeStyle=orthogonalEdgeStyle;rounded=0;orthogonalLoop=1;jettySize=auto;html=1;entryX=0;entryY=0;entryDx=0;entryDy=0;" edge="1" parent="1" source="cnz3hMsyKCfIZB5nhlxs-19" target="cnz3hMsyKCfIZB5nhlxs-23">
          <mxGeometry relative="1" as="geometry" />
        </mxCell>
        <mxCell id="cnz3hMsyKCfIZB5nhlxs-19" value="noise" style="ellipse;whiteSpace=wrap;html=1;aspect=fixed;fillColor=#fad9d5;strokeColor=#ae4132;" vertex="1" parent="1">
          <mxGeometry x="110" y="110" width="70" height="70" as="geometry" />
        </mxCell>
        <mxCell id="cnz3hMsyKCfIZB5nhlxs-26" style="edgeStyle=orthogonalEdgeStyle;rounded=0;orthogonalLoop=1;jettySize=auto;html=1;" edge="1" parent="1" source="cnz3hMsyKCfIZB5nhlxs-20" target="cnz3hMsyKCfIZB5nhlxs-23">
          <mxGeometry relative="1" as="geometry" />
        </mxCell>
        <mxCell id="cnz3hMsyKCfIZB5nhlxs-20" value="QEC" style="ellipse;whiteSpace=wrap;html=1;aspect=fixed;fillColor=#6d8764;fontColor=#ffffff;strokeColor=#3A5431;" vertex="1" parent="1">
          <mxGeometry x="245" y="90" width="70" height="70" as="geometry" />
        </mxCell>
        <mxCell id="cnz3hMsyKCfIZB5nhlxs-24" value="" style="edgeStyle=orthogonalEdgeStyle;rounded=0;orthogonalLoop=1;jettySize=auto;html=1;" edge="1" parent="1" source="cnz3hMsyKCfIZB5nhlxs-21" target="cnz3hMsyKCfIZB5nhlxs-23">
          <mxGeometry relative="1" as="geometry" />
        </mxCell>
        <mxCell id="cnz3hMsyKCfIZB5nhlxs-21" value="gate ops" style="ellipse;whiteSpace=wrap;html=1;aspect=fixed;fillColor=#fad9d5;strokeColor=#ae4132;" vertex="1" parent="1">
          <mxGeometry x="110" y="195" width="70" height="70" as="geometry" />
        </mxCell>
        <mxCell id="cnz3hMsyKCfIZB5nhlxs-27" style="edgeStyle=orthogonalEdgeStyle;rounded=0;orthogonalLoop=1;jettySize=auto;html=1;entryX=0;entryY=1;entryDx=0;entryDy=0;" edge="1" parent="1" source="cnz3hMsyKCfIZB5nhlxs-22" target="cnz3hMsyKCfIZB5nhlxs-23">
          <mxGeometry relative="1" as="geometry" />
        </mxCell>
        <mxCell id="cnz3hMsyKCfIZB5nhlxs-22" value="dephase" style="ellipse;whiteSpace=wrap;html=1;aspect=fixed;fillColor=#fad9d5;strokeColor=#ae4132;" vertex="1" parent="1">
          <mxGeometry x="110" y="290" width="70" height="70" as="geometry" />
        </mxCell>
        <mxCell id="cnz3hMsyKCfIZB5nhlxs-23" value="qubit lifetime" style="rounded=1;whiteSpace=wrap;html=1;fillColor=#a0522d;fontColor=#ffffff;strokeColor=#6D1F00;" vertex="1" parent="1">
          <mxGeometry x="220" y="200" width="120" height="60" as="geometry" />
        </mxCell>
        <mxCell id="cnz3hMsyKCfIZB5nhlxs-30" value="&lt;div&gt;maximum&lt;/div&gt;&lt;div&gt;tolerable&lt;/div&gt;&lt;div&gt;error rate?&lt;/div&gt;&lt;div&gt;&lt;br&gt;&lt;/div&gt;&lt;div&gt;&lt;br&gt;&lt;/div&gt;" style="whiteSpace=wrap;html=1;shape=mxgraph.basic.cloud_callout;flipH=1;fillColor=#76608a;fontColor=#ffffff;strokeColor=#432D57;" vertex="1" parent="1">
          <mxGeometry x="420" y="90" width="150" height="110" as="geometry" />
        </mxCell>
      </root>
    </mxGraphModel>
  </diagram>
</mxfile>
